<?xml version="1.0" encoding="iso-8859-1"?>
<!-- Generator: Adobe Illustrator 19.0.0, SVG Export Plug-In . SVG Version: 6.00 Build 0)  -->
<svg xmlns="http://www.w3.org/2000/svg" xmlns:xlink="http://www.w3.org/1999/xlink" version="1.1" id="Capa_1" x="0px" y="0px" viewBox="0 0 512 512" style="enable-background:new 0 0 512 512;" xml:space="preserve" width="512px" height="512px">
<g>
	<g>
		<path d="M256,0C114.837,0,0,114.837,0,256s114.837,256,256,256s256-114.837,256-256S397.163,0,256,0z M256,490.667    c-129.387,0-234.667-105.28-234.667-234.667S126.613,21.333,256,21.333S490.667,126.613,490.667,256S385.387,490.667,256,490.667z    " fill="#dedede"/>
	</g>
</g>
<g>
	<g>
		<path d="M160,170.667c-17.643,0-32,14.357-32,32c0,17.643,14.357,32,32,32s32-14.357,32-32    C192,185.024,177.643,170.667,160,170.667z M160,213.333c-5.867,0-10.667-4.779-10.667-10.667S154.133,192,160,192    c5.867,0,10.667,4.779,10.667,10.667S165.867,213.333,160,213.333z" fill="#dedede"/>
	</g>
</g>
<g>
	<g>
		<path d="M352,170.667c-17.643,0-32,14.357-32,32c0,17.643,14.357,32,32,32c17.643,0,32-14.357,32-32    C384,185.024,369.643,170.667,352,170.667z M352,213.333c-5.867,0-10.667-4.779-10.667-10.667S346.133,192,352,192    c5.867,0,10.667,4.779,10.667,10.667S357.867,213.333,352,213.333z" fill="#dedede"/>
	</g>
</g>
<g>
	<g>
		<path d="M381.717,388.907C354.048,345.771,307.072,320,256,320s-98.048,25.771-125.696,68.907    c-3.2,4.971-1.728,11.563,3.221,14.741c4.907,3.157,11.52,1.749,14.72-3.221c23.723-36.992,64-59.093,107.755-59.093    s84.032,22.101,107.755,59.093c2.048,3.179,5.483,4.907,8.981,4.907c1.963,0,3.968-0.533,5.76-1.685    C383.445,400.469,384.896,393.877,381.717,388.907z" fill="#dedede"/>
	</g>
</g>
<g>
	<g>
		<path d="M394.667,277.333c-17.643,0-32,14.357-32,32c0,17.643,14.357,32,32,32s32-14.357,32-32    C426.667,291.691,412.309,277.333,394.667,277.333z M394.667,320C388.8,320,384,315.221,384,309.333s4.8-10.667,10.667-10.667    s10.667,4.779,10.667,10.667S400.533,320,394.667,320z" fill="#dedede"/>
	</g>
</g>
<g>
	<g>
		<path d="M383.851,311.147c-0.981-5.803-6.592-9.771-12.267-8.768l-106.667,17.771c-5.803,0.96-9.749,6.464-8.768,12.267    c0.875,5.227,5.397,8.917,10.496,8.917c0.576,0,1.195-0.043,1.771-0.149l106.667-17.771    C380.885,322.453,384.832,316.949,383.851,311.147z" fill="#dedede"/>
	</g>
</g>
<g>
	<g>
		<path d="M169.536,133.888c-2.645-5.269-9.024-7.381-14.315-4.757l-42.667,21.333c-5.269,2.624-7.381,9.045-4.757,14.315    c1.877,3.733,5.632,5.888,9.536,5.888c1.6,0,3.221-0.363,4.779-1.131l42.667-21.333    C170.048,145.579,172.16,139.157,169.536,133.888z" fill="#dedede"/>
	</g>
</g>
<g>
	<g>
		<path d="M401.045,151.467l-42.667-32c-4.672-3.52-11.371-2.581-14.933,2.133c-3.52,4.715-2.56,11.392,2.155,14.933l42.667,32    c1.92,1.429,4.181,2.133,6.4,2.133c3.221,0,6.443-1.472,8.533-4.267C406.72,161.685,405.76,155.008,401.045,151.467z" fill="#dedede"/>
	</g>
</g>
<g>
</g>
<g>
</g>
<g>
</g>
<g>
</g>
<g>
</g>
<g>
</g>
<g>
</g>
<g>
</g>
<g>
</g>
<g>
</g>
<g>
</g>
<g>
</g>
<g>
</g>
<g>
</g>
<g>
</g>
</svg>
