<?xml version="1.0" encoding="iso-8859-1"?>
<!-- Generator: Adobe Illustrator 19.0.0, SVG Export Plug-In . SVG Version: 6.00 Build 0)  -->
<svg xmlns="http://www.w3.org/2000/svg" xmlns:xlink="http://www.w3.org/1999/xlink" version="1.1" id="Capa_1" x="0px" y="0px" viewBox="0 0 512.019 512.019" style="enable-background:new 0 0 512.019 512.019;" xml:space="preserve" width="512px" height="512px">
<g>
	<g>
		<path d="M504.372,146.528l-51.671-77.502l-13.953-42.479c-1.177-3.584-4.526-6-8.285-6h-43.604c-3.933,0-7.387,2.634-8.416,6.436    l-11.843,43.604c-1.247,4.57,1.387,9.296,5.93,10.648l23.773,7.081c1.666,12.61,6.698,40.561,19.709,57.924    c-14.921,5.145-31.229,16.587-38.52,38.59c-10.212-4.735-21.375-7.308-32.956-7.308c-20.956,0-40.674,8.163-55.491,22.988    l-30.837,30.837l-30.828-30.837c-30.61-30.601-80.397-30.601-111.007,0c-14.014,14.014-21.523,32.049-22.709,50.424L26.41,291.739    c-11.084,4.334-19.439,13.814-23.581,26.79c-5.145,16.125-3.131,35.494,4.901,47.092l51.584,77.371l13.936,42.479    c1.169,3.576,4.509,6,8.285,6h43.604c3.933,0,7.387-2.634,8.416-6.436l11.852-43.604c1.247-4.57-1.387-9.296-5.93-10.648    l-23.782-7.081c-1.666-12.61-6.689-40.561-19.709-57.924c14.511-4.997,30.357-15.916,37.927-36.732L252.044,447.17    c1.639,1.64,3.846,2.555,6.166,2.555c2.32,0,4.535-0.916,6.166-2.555l135.67-135.67c13.761-13.761,21.279-31.404,22.665-49.438    l63.069-41.851c11.006-4.369,19.291-13.814,23.407-26.721C514.332,177.365,512.317,157.996,504.372,146.528z M119.723,315.346    c-7.238,36.174-42.287,36.593-43.779,36.593c-4.273,0-7.919,3.096-8.607,7.326c-0.68,4.221,1.797,8.32,5.852,9.671    c15.636,5.215,24.157,44.215,25.822,62.293c0.331,3.549,2.782,6.541,6.201,7.561l21.139,6.288l-7.884,28.953H87.848l-12.34-37.604    c-0.244-0.75-0.593-1.456-1.029-2.119L22.154,355.82c-4.387-6.34-6.549-19.953-2.703-31.988c1.814-5.686,5.669-13.09,13.77-16.02    c0.541-0.192,1.055-0.445,1.552-0.741l60.034-36.427c2.817,14.982,10.003,29.293,21.567,40.866l3.488,3.488    C119.827,315.119,119.74,315.215,119.723,315.346z M387.696,299.169L258.192,428.673L128.688,299.169    c-23.782-23.799-23.782-62.52,0.017-86.327c11.904-11.904,27.532-17.852,43.168-17.852c15.636,0,31.273,5.956,43.168,17.852    l36.994,37.002c1.64,1.64,3.846,2.555,6.166,2.555c2.32,0,4.535-0.916,6.166-2.555l37.003-37.002    c11.529-11.529,26.86-17.878,43.159-17.878c16.308,0,31.639,6.349,43.168,17.878C411.496,236.641,411.496,275.37,387.696,299.169z     M492.556,188.188c-1.814,5.686-5.669,13.09-13.77,16.02c-0.645,0.235-1.273,0.549-1.849,0.933l-55.264,36.68    c-2.765-15.139-9.95-29.625-21.628-41.311c-2.259-2.259-4.657-4.299-7.125-6.244c8.259-33.392,41.712-34.177,43.133-34.186    c4.273,0,7.919-3.096,8.607-7.326c0.68-4.221-1.797-8.32-5.852-9.671c-15.636-5.215-24.165-44.223-25.831-62.293    c-0.331-3.549-2.782-6.541-6.201-7.561l-21.122-6.288l7.866-28.953h30.619l12.349,37.604c0.244,0.75,0.593,1.456,1.029,2.119    l52.412,78.618C494.23,162.54,496.393,176.162,492.556,188.188z" fill="#dedede"/>
	</g>
</g>
<g>
	<g>
		<path d="M84.665,299.614h-1.823c-12.968,0-24.619,7.203-30.401,18.802l-1.727,3.453c-2.163,4.299-0.419,9.541,3.881,11.703    c4.308,2.163,9.549,0.401,11.703-3.89l1.735-3.462c2.826-5.66,8.503-9.166,14.808-9.166h1.823c4.823,0,8.721-3.907,8.721-8.721    C93.386,303.521,89.487,299.614,84.665,299.614z" fill="#dedede"/>
	</g>
</g>
<g>
	<g>
		<circle cx="189.315" cy="273.451" r="17.442" fill="#dedede"/>
	</g>
</g>
<g>
	<g>
		<circle cx="328.848" cy="273.451" r="17.442" fill="#dedede"/>
	</g>
</g>
<g>
	<g>
		<path d="M292.5,320.936c-2.669-4.012-8.076-5.093-12.096-2.416l-21.322,14.215l-21.322-14.215    c-4.02-2.677-9.436-1.596-12.096,2.416c-2.677,4.003-1.596,9.427,2.416,12.096l26.171,17.442c1.456,0.977,3.148,1.465,4.831,1.465    c1.683,0,3.375-0.488,4.84-1.465l26.162-17.442C294.096,330.363,295.177,324.948,292.5,320.936z" fill="#dedede"/>
	</g>
</g>
<g>
	<g>
		<path d="M457.402,178.455c-4.299-2.172-9.549-0.41-11.703,3.889l-1.744,3.471c-2.817,5.642-8.494,9.148-14.808,9.148h-1.814    c-4.823,0-8.721,3.907-8.721,8.721c0,4.814,3.898,8.721,8.721,8.721h1.814c12.959,0,24.61-7.203,30.401-18.785l1.735-3.462    C463.445,185.851,461.701,180.609,457.402,178.455z" fill="#dedede"/>
	</g>
</g>
<g>
</g>
<g>
</g>
<g>
</g>
<g>
</g>
<g>
</g>
<g>
</g>
<g>
</g>
<g>
</g>
<g>
</g>
<g>
</g>
<g>
</g>
<g>
</g>
<g>
</g>
<g>
</g>
<g>
</g>
</svg>
